<svg xmlns="http://www.w3.org/2000/svg" viewBox="0 0 200 90.8"><defs><style>.cls-1{fill:#e5d19a;}.cls-2,.cls-5{fill:#fff;}.cls-2,.cls-4{opacity:0.25;isolation:isolate;}.cls-3{opacity:0.08;}</style></defs><title>triggers_mi</title><g id="Ebene_2" data-name="Ebene 2"><g id="Layer_1" data-name="Layer 1"><path class="cls-1" d="M200,90.8s-32.7-3.2-50.6-3.2S101,90,101,90s3.1-44.7,4.8-52,7.7-21.3,16.9-27.9S134.7,0,145.5,0s25.4,6.4,34.6,21.4S200,90.8,200,90.8Z"/><path class="cls-2" d="M101.5,83.2s26.1-4.4,49-4.4,47.9,4.4,47.9,4.4c1,4.7,1.6,7.6,1.6,7.6s-32.7-3.2-50.6-3.2S101,90,101,90,101.2,87.3,101.5,83.2Z"/><g class="cls-3"><path class="cls-1" d="M151.5,65.7l-3.2,2.6a6.71,6.71,0,0,0-2,4.5h9.8V70.2h-6.2a6.71,6.71,0,0,1,2.1-1.9,12.47,12.47,0,0,0,2.7-2.1,4.77,4.77,0,0,0,1.3-3.3,4.22,4.22,0,0,0-1.4-3.3,5.13,5.13,0,0,0-3.5-1.2c-3.1,0-4.7,1.7-4.7,5h2.7q0-2.7,2.1-2.7a1.83,1.83,0,0,1,2,2.1C153.3,63.9,152.7,64.8,151.5,65.7Z"/><path class="cls-1" d="M134,67.2h3c1.5,0,2.3.6,2.4,1.9s.2,2.5.3,3.8H143v-.4c-.5-.2-.7-.7-.7-1.5a2.81,2.81,0,0,1,.1-.8v-.7a3.56,3.56,0,0,0-1.8-3.5,3.25,3.25,0,0,0,2.2-3.4,3.54,3.54,0,0,0-1.3-3,4.72,4.72,0,0,0-3.2-1H131V72.9h3Zm0-6.2h3.7c1.4,0,2.1.6,2.1,1.9s-.8,1.9-2.3,1.9H134Z"/></g><path class="cls-1" d="M.1,90.8s32.7-3.2,50.6-3.2S99,90,99,90s-3.1-44.7-4.8-52S86.5,16.7,77.3,10.1,65.4,0,54.6,0,29.2,6.4,20,21.4.1,90.8.1,90.8Z"/><path class="cls-2" d="M98.5,83.2s-26.1-4.4-49-4.4S1.6,83.2,1.6,83.2C.6,87.9,0,90.8,0,90.8s32.7-3.2,50.6-3.2S99,90,99,90,98.9,87.3,98.5,83.2Z"/><g class="cls-3"><path class="cls-1" d="M64.6,65.7l-3.2,2.6a6.71,6.71,0,0,0-2,4.5h9.7V70.2H62.9A6.71,6.71,0,0,1,65,68.3a12.47,12.47,0,0,0,2.7-2.1A4.77,4.77,0,0,0,69,62.9a4.22,4.22,0,0,0-1.4-3.3,5.13,5.13,0,0,0-3.5-1.2c-3.1,0-4.7,1.7-4.7,5h2.7q0-2.7,2.1-2.7a1.83,1.83,0,0,1,2,2.1A3.17,3.17,0,0,1,64.6,65.7Z"/><polygon class="cls-1" points="56.1 70.2 49 70.2 49 58.5 46 58.5 46 72.8 56.1 72.8 56.1 70.2"/></g><g class="cls-4"><path class="cls-5" d="M64.6,65.7l-3.2,2.6a6.71,6.71,0,0,0-2,4.5h9.7V70.2H62.9A6.71,6.71,0,0,1,65,68.3a12.47,12.47,0,0,0,2.7-2.1A4.77,4.77,0,0,0,69,62.9a4.22,4.22,0,0,0-1.4-3.3,5.13,5.13,0,0,0-3.5-1.2c-3.1,0-4.7,1.7-4.7,5h2.7q0-2.7,2.1-2.7a1.83,1.83,0,0,1,2,2.1A3.17,3.17,0,0,1,64.6,65.7Z"/><polygon class="cls-5" points="56.1 70.2 49 70.2 49 58.5 46 58.5 46 72.8 56.1 72.8 56.1 70.2"/></g><g class="cls-4"><path class="cls-5" d="M151.5,65.7l-3.2,2.6a6.71,6.71,0,0,0-2,4.5h9.8V70.2h-6.2a6.71,6.71,0,0,1,2.1-1.9,12.47,12.47,0,0,0,2.7-2.1,4.77,4.77,0,0,0,1.3-3.3,4.22,4.22,0,0,0-1.4-3.3,5.13,5.13,0,0,0-3.5-1.2c-3.1,0-4.7,1.7-4.7,5h2.7q0-2.7,2.1-2.7a1.83,1.83,0,0,1,2,2.1C153.3,63.9,152.7,64.8,151.5,65.7Z"/><path class="cls-5" d="M134,67.2h3c1.5,0,2.3.6,2.4,1.9s.2,2.5.3,3.8H143v-.4c-.5-.2-.7-.7-.7-1.5a2.81,2.81,0,0,1,.1-.8v-.7a3.56,3.56,0,0,0-1.8-3.5,3.25,3.25,0,0,0,2.2-3.4,3.54,3.54,0,0,0-1.3-3,4.72,4.72,0,0,0-3.2-1H131V72.9h3Zm0-6.2h3.7c1.4,0,2.1.6,2.1,1.9s-.8,1.9-2.3,1.9H134Z"/></g></g></g></svg>